<svg width="364" height="84" viewBox="0 0 364 84" fill="none" xmlns="http://www.w3.org/2000/svg">
<rect x="5" y="5" width="354" height="74" rx="5" fill="#006CFC" stroke="#001997" stroke-width="10"></rect>
<path d="M115.088 56V24.5H131.828V28.64H119.273V36.47H127.643L126.698 40.655H119.273V51.815H131.828V56H115.088ZM139.888 56V33.5H157.753C158.653 33.5 159.418 33.83 160.048 34.49C160.678 35.12 160.993 35.885 160.993 36.785V56H156.808V39.35C156.808 38.9 156.643 38.525 156.313 38.225C155.983 37.895 155.593 37.73 155.143 37.73H152.578V56H148.348V39.35C148.348 38.9 148.183 38.525 147.853 38.225C147.523 37.895 147.133 37.73 146.683 37.73H144.118V56H139.888ZM166.543 67.25V33.5H175.948C176.878 33.5 177.658 33.815 178.288 34.445C178.918 35.075 179.233 35.855 179.233 36.785V52.715C179.233 53.645 178.918 54.425 178.288 55.055C177.658 55.685 176.878 56 175.948 56H170.773V67.25H166.543ZM170.773 51.77H173.383C173.803 51.77 174.178 51.605 174.508 51.275C174.838 50.945 175.003 50.57 175.003 50.15V39.395C175.003 38.885 174.838 38.48 174.508 38.18C174.178 37.88 173.803 37.73 173.383 37.73H170.773V51.77ZM187.502 56C186.602 56 185.822 55.685 185.162 55.055C184.532 54.395 184.217 53.615 184.217 52.715V36.74C184.217 35.84 184.532 35.075 185.162 34.445C185.822 33.815 186.602 33.5 187.502 33.5H193.622C194.552 33.5 195.332 33.815 195.962 34.445C196.592 35.075 196.907 35.84 196.907 36.74V43.58C196.907 44.48 196.592 45.26 195.962 45.92C195.332 46.55 194.552 46.865 193.622 46.865H188.447V50.15C188.447 50.6 188.597 50.99 188.897 51.32C189.227 51.62 189.632 51.77 190.112 51.77H195.962L196.907 56H187.502ZM188.447 42.635H191.057C191.507 42.635 191.882 42.485 192.182 42.185C192.512 41.855 192.677 41.465 192.677 41.015V39.35C192.677 38.9 192.512 38.525 192.182 38.225C191.882 37.895 191.507 37.73 191.057 37.73H190.112C189.632 37.73 189.227 37.895 188.897 38.225C188.597 38.525 188.447 38.9 188.447 39.35V42.635ZM202.771 56L209.611 37.73H202.771V33.5H215.461L208.531 51.77H215.461V56H202.771ZM222.808 56C221.908 56 221.128 55.685 220.468 55.055C219.838 54.425 219.523 53.645 219.523 52.715V45.92C219.523 45.02 219.838 44.255 220.468 43.625C221.128 42.965 221.908 42.635 222.808 42.635H226.318C226.798 42.635 227.188 42.485 227.488 42.185C227.818 41.855 227.983 41.465 227.983 41.015V39.35C227.983 38.9 227.818 38.525 227.488 38.225C227.188 37.895 226.798 37.73 226.318 37.73H221.458L222.403 33.5H228.928C229.828 33.5 230.593 33.83 231.223 34.49C231.883 35.12 232.213 35.885 232.213 36.785V56H222.808ZM225.373 51.77H227.983V46.865H225.373C224.923 46.865 224.533 47.03 224.203 47.36C223.903 47.66 223.753 48.035 223.753 48.485V50.15C223.753 50.6 223.903 50.99 224.203 51.32C224.533 51.62 224.923 51.77 225.373 51.77ZM237.198 56V33.5H246.603C247.503 33.5 248.268 33.83 248.898 34.49C249.558 35.12 249.888 35.885 249.888 36.785V41.69L245.658 40.745V39.395C245.658 38.945 245.493 38.555 245.163 38.225C244.863 37.895 244.488 37.73 244.038 37.73H241.428V56H237.198Z" fill="#D8FCFC"></path>
</svg>
