<svg width="244" height="243" viewBox="0 0 244 243" fill="none" xmlns="http://www.w3.org/2000/svg">
<path d="M118.936 113.5L128.836 102.6H114.536C111.67 102.6 110.236 103.433 110.236 105.1C110.236 105.7 110.37 106.6 110.636 107.8C110.903 108.933 111.036 109.8 111.036 110.4C111.036 116.067 108.403 118.9 103.136 118.9C100.936 118.9 99.1363 118.233 97.7363 116.9C96.3363 115.5 95.6363 113.7 95.6363 111.5C95.6363 110.433 95.803 108.8 96.1363 106.6C96.5363 104.4 96.7363 102.767 96.7363 101.7C96.7363 100.767 96.603 99.4333 96.3363 97.7C96.0697 95.9 95.9363 94.5667 95.9363 93.7C95.9363 90.5 97.803 88.9 101.536 88.9C101.936 88.9 102.136 88.9 102.136 88.9C106.136 89.0333 110.336 89.1 114.736 89.1L143.836 88.9C145.97 88.9 147.436 89.3667 148.236 90.3C149.036 91.1667 149.436 92.8 149.436 95.2C149.436 98.6667 148.203 101.7 145.736 104.3L134.136 116.4C139.203 116.933 143.136 118.8 145.936 122C148.803 125.133 150.236 129.267 150.236 134.4C150.236 141.467 147.503 147.133 142.036 151.4C136.57 155.667 129.303 157.8 120.236 157.8C112.37 157.8 105.97 156 101.036 152.4C96.103 148.8 93.6363 144.133 93.6363 138.4C93.6363 135.2 94.6363 132.5 96.6363 130.3C98.6363 128.1 101.103 127 104.036 127C106.57 127 108.736 127.867 110.536 129.6C112.403 131.267 113.336 133.333 113.336 135.8C113.336 137.867 112.503 139.867 110.836 141.8C112.503 143.067 113.87 143.9 114.936 144.3C116.07 144.633 117.703 144.8 119.836 144.8C123.636 144.8 126.736 143.867 129.136 142C131.536 140.133 132.736 137.733 132.736 134.8C132.736 129.133 128.536 126.167 120.136 125.9C117.07 125.767 115.536 124.167 115.536 121.1C115.536 118.5 116.67 115.967 118.936 113.5Z" fill="black"></path>
<circle cx="121.5" cy="121.5" r="110" stroke="black" stroke-width="23"></circle>
<path d="M232 122C232 182.199 182.751 231 122 231C61.2487 231 27 186.5 19 160.5" stroke="#F1F1F1" stroke-width="23"></path>
</svg>
