<svg width="97" height="97" viewBox="0 0 97 97" fill="none" xmlns="http://www.w3.org/2000/svg">
<path d="M43.8942 56.9022L42.6031 57.1995L37.9854 55.5098L37.5892 54.5951L39.8964 48.2901L40.8954 47.9385L45.6226 49.6684L46.2014 50.5972L43.8942 56.9022Z" fill="#D9ECFD"></path>
<path d="M35.2703 55.1587L30.1856 69.0542C28.8399 67.975 27.2947 67.0967 25.5722 66.4909C17.5716 63.6763 8.67202 67.8204 5.67904 75.7561C2.61691 83.8747 6.71762 92.9061 14.7872 95.9715C22.9964 99.0897 32.1646 94.7305 35.1824 86.4838L45.3018 58.8296C45.5536 58.1417 45.1999 57.38 44.5122 57.1285L36.9716 54.3691C36.2835 54.1173 35.5219 54.4708 35.2703 55.1587ZM28.2018 84.1665C26.618 88.4947 21.8254 90.7194 17.4971 89.1356C13.1689 87.5518 10.9441 82.7592 12.528 78.4309C14.1118 74.1027 18.9044 71.8779 23.2326 73.4618C27.5609 75.0456 29.7856 79.8382 28.2018 84.1665Z" fill="#FC5A36"></path>
<path d="M20.8308 96.0395C12.6905 93.0603 8.5061 84.0469 11.4852 75.9046C13.4544 70.5285 18.053 66.8773 23.2961 65.8772C15.8747 64.455 8.3049 68.579 5.62471 75.9046C2.64556 84.0469 6.83001 93.0603 14.9702 96.0395C17.7364 97.0513 20.6042 97.237 23.2999 96.7213C22.4737 96.565 21.6473 96.3384 20.8308 96.0395ZM35.2705 55.1593L30.1856 69.0541C31.9504 70.7026 33.5912 72.9514 33.8841 75.1369L40.8952 55.8049L36.9714 54.3694C36.2839 54.118 35.5223 54.4716 35.2705 55.1593Z" fill="#DB3915"></path>
<path d="M53.1056 56.9022L54.373 57.1995L58.907 55.5405L59.4106 54.5951L57.1034 48.2901L56.0931 47.9385L51.4365 49.6424L50.7984 50.5972L53.1056 56.9022Z" fill="#C5E2FF"></path>
<path d="M55.444 0C60.9842 2.02734 63.832 8.16202 61.8047 13.7022L48.5201 50.0331C48.2685 50.721 47.5067 51.0749 46.8188 50.8231L39.2782 48.0637C38.5904 47.8121 38.2369 47.0505 38.4883 46.3628L55.444 0Z" fill="#C5E2FF"></path>
<path d="M91.3207 75.7561C88.3278 67.8204 79.4282 63.6763 71.4276 66.4908C69.7051 67.0967 68.1599 67.975 66.8142 69.0541L61.7295 55.1587C61.4777 54.4708 60.7161 54.1173 60.0284 54.3691L52.4878 57.1285C51.7999 57.38 51.4463 58.1418 51.6981 58.8296L61.8176 86.4838C64.8214 94.6925 74.0413 99.0753 82.2126 95.9715C90.2822 92.9061 94.3827 83.8747 91.3207 75.7561ZM79.5026 89.1358C75.1744 90.7196 70.3818 88.4949 68.798 84.1666C67.2141 79.8384 69.4389 75.0458 73.7671 73.462C78.0954 71.8781 82.888 74.1029 84.4718 78.4311C86.0558 82.7594 83.8309 87.552 79.5026 89.1358Z" fill="#FC5A36"></path>
<path d="M67.7541 86.692L57.5593 58.8299C57.3077 58.1422 57.6612 57.3806 58.3489 57.1288L61.966 55.8049L61.7299 55.1597C61.4783 54.4718 60.7165 54.118 60.0286 54.3696L52.4884 57.1288C51.8005 57.3804 51.4469 58.1422 51.6987 58.8299L61.8936 86.6919C64.5738 94.0174 72.1417 98.1394 79.5612 96.7211C74.3198 95.7191 69.7212 92.068 67.7541 86.692Z" fill="#DB3915"></path>
<path d="M41.5558 0C36.0156 2.02734 33.1677 8.16202 35.1951 13.7022L48.4797 50.0331C48.7313 50.721 49.4931 51.0749 50.181 50.8231L57.7216 48.0637C58.4093 47.8121 58.7628 47.0505 58.5114 46.3628L41.5558 0Z" fill="#D9ECFD"></path>
<path d="M49.3571 38.2104C48.5724 38.2104 47.9362 37.5742 47.9362 36.7895C47.9362 36.0048 48.5724 35.3686 49.3571 35.3686C50.1418 35.3686 50.778 36.0048 50.778 36.7895C50.778 37.5742 50.142 38.2104 49.3571 38.2104Z" fill="#C5E2FF"></path>
</svg>
